<svg width="512" height="512" viewBox="0 0 1200 1200" xmlns="http://www.w3.org/2000/svg" role="img" aria-label="Tensorium T mark">
  <defs>
    <style>
      .bg { fill: #05070D; }
      .ring { fill: #070B16; stroke: #F1EDE4; stroke-width: 28; }
      .mark { fill: #F1EDE4; }
      .accent { stroke: #4C88FF; stroke-width: 10; stroke-linecap: round; fill: none; }
    </style>
  </defs>

  <rect width="1200" height="1200" rx="260" class="bg"/>
  <circle cx="600" cy="600" r="430" class="ring"/>

  <!-- top hash pillars -->
  <rect x="538" y="282" width="28" height="72" rx="4" class="mark"/>
  <rect x="634" y="282" width="28" height="72" rx="4" class="mark"/>

  <!-- primary T monogram -->
  <path class="mark" d="
    M 346 412
    L 854 412
    L 828 462
    L 654 462
    L 654 858
    L 610 896
    L 600 896
    L 590 896
    L 546 858
    L 546 462
    L 372 462
    Z
  "/>

  <!-- negative cuts for refined geometry -->
  <path fill="#070B16" d="
    M 404 480
    L 796 480
    L 772 512
    L 628 512
    L 628 850
    L 600 874
    L 572 850
    L 572 512
    L 428 512
    Z
  "/>

  <!-- rebuild central stem in ivory -->
  <path class="mark" d="
    M 572 512
    L 628 512
    L 628 842
    L 600 868
    L 572 842
    Z
  "/>

  <path class="accent" d="M 384 792 C 340 734, 324 670, 332 572" />
  <path class="accent" d="M 816 792 C 860 734, 876 670, 868 572" />
</svg>
