<svg width="512" height="512" viewBox="0 0 512 512" xmlns="http://www.w3.org/2000/svg" role="img" aria-label="TXM token coin">
  <defs>
    
    <linearGradient id="rim" x1="0.12" y1="0.05" x2="0.88" y2="0.95">
      <stop offset="0" stop-color="#eaf4ff"></stop>
      <stop offset="0.18" stop-color="#aeb d2"></stop>
      <stop offset="0.2" stop-color="#9fb0cc"></stop>
      <stop offset="0.5" stop-color="#5d6a85"></stop>
      <stop offset="0.78" stop-color="#cdd9ee"></stop>
      <stop offset="1" stop-color="#717f9b"></stop>
    </linearGradient>
    <linearGradient id="rim2" x1="0" y1="0" x2="0" y2="1">
      <stop offset="0" stop-color="#dfeaff"></stop>
      <stop offset="0.5" stop-color="#7b89a6"></stop>
      <stop offset="1" stop-color="#c7d3e8"></stop>
    </linearGradient>
    
    <radialGradient id="field" cx="0.42" cy="0.36" r="0.75">
      <stop offset="0" stop-color="#142036"></stop>
      <stop offset="0.55" stop-color="#0a1326"></stop>
      <stop offset="1" stop-color="#04070f"></stop>
    </radialGradient>
    
    <linearGradient id="neon" x1="0" y1="0" x2="1" y2="1">
      <stop offset="0" stop-color="#7af2ff"></stop>
      <stop offset="0.5" stop-color="#2fe6ff"></stop>
      <stop offset="1" stop-color="#6d4dff"></stop>
    </linearGradient>
    <linearGradient id="cubeTop" x1="0" y1="0" x2="1" y2="1">
      <stop offset="0" stop-color="#9af6ff"></stop>
      <stop offset="1" stop-color="#2fe6ff"></stop>
    </linearGradient>
    <linearGradient id="cubeLeft" x1="0" y1="0" x2="0" y2="1">
      <stop offset="0" stop-color="#1d6f8f"></stop>
      <stop offset="1" stop-color="#0c3550"></stop>
    </linearGradient>
    <linearGradient id="cubeRight" x1="0" y1="0" x2="1" y2="1">
      <stop offset="0" stop-color="#3a2f7a"></stop>
      <stop offset="1" stop-color="#160f3a"></stop>
    </linearGradient>
    <radialGradient id="coreGlow" cx="0.5" cy="0.5" r="0.5">
      <stop offset="0" stop-color="#2fe6ff" stop-opacity="0.9"></stop>
      <stop offset="1" stop-color="#2fe6ff" stop-opacity="0"></stop>
    </radialGradient>
    <filter id="soft" x="-40%" y="-40%" width="180%" height="180%">
      <feGaussianBlur stdDeviation="5"></feGaussianBlur>
    </filter>
    <linearGradient id="sheen" x1="0" y1="0" x2="0.6" y2="1">
      <stop offset="0" stop-color="#ffffff" stop-opacity="0.5"></stop>
      <stop offset="0.35" stop-color="#ffffff" stop-opacity="0"></stop>
    </linearGradient>
  </defs>

  
  <circle cx="256" cy="256" r="248" fill="url(#rim)"></circle>
  <circle cx="256" cy="256" r="248" fill="none" stroke="#0a0f1c" stroke-opacity="0.5" stroke-width="2"></circle>

  
  <g stroke="#0a0f1c" stroke-opacity="0.35" stroke-width="3">
    
    <line x1="489.0" y1="256.0" x2="502.0" y2="256.0"></line><line x1="488.4" y1="272.3" x2="501.4" y2="273.2"></line><line x1="486.7" y1="288.4" x2="499.6" y2="290.2"></line><line x1="483.9" y1="304.4" x2="496.6" y2="307.1"></line><line x1="480.0" y1="320.2" x2="492.5" y2="323.8"></line><line x1="474.9" y1="335.7" x2="487.2" y2="340.1"></line><line x1="468.9" y1="350.8" x2="480.7" y2="356.1"></line><line x1="461.7" y1="365.4" x2="473.2" y2="371.5"></line><line x1="453.6" y1="379.5" x2="464.6" y2="386.4"></line><line x1="444.5" y1="393.0" x2="455.0" y2="400.6"></line><line x1="434.5" y1="405.8" x2="444.4" y2="414.1"></line><line x1="423.6" y1="417.9" x2="433.0" y2="426.9"></line><line x1="411.9" y1="429.2" x2="420.6" y2="438.8"></line><line x1="399.4" y1="439.6" x2="407.5" y2="449.9"></line><line x1="386.3" y1="449.2" x2="393.6" y2="459.9"></line><line x1="372.5" y1="457.8" x2="379.0" y2="469.0"></line><line x1="358.1" y1="465.4" x2="363.8" y2="477.1"></line><line x1="343.3" y1="472.0" x2="348.2" y2="484.1"></line><line x1="328.0" y1="477.6" x2="332.0" y2="490.0"></line><line x1="312.4" y1="482.1" x2="315.5" y2="494.7"></line><line x1="296.5" y1="485.5" x2="298.7" y2="498.3"></line><line x1="280.4" y1="487.7" x2="281.7" y2="500.7"></line><line x1="264.1" y1="488.9" x2="264.6" y2="501.9"></line><line x1="247.9" y1="488.9" x2="247.4" y2="501.9"></line><line x1="231.6" y1="487.7" x2="230.3" y2="500.7"></line><line x1="215.5" y1="485.5" x2="213.3" y2="498.3"></line><line x1="199.6" y1="482.1" x2="196.5" y2="494.7"></line><line x1="184.0" y1="477.6" x2="180.0" y2="490.0"></line><line x1="168.7" y1="472.0" x2="163.8" y2="484.1"></line><line x1="153.9" y1="465.4" x2="148.2" y2="477.1"></line><line x1="139.5" y1="457.8" x2="133.0" y2="469.0"></line><line x1="125.7" y1="449.2" x2="118.4" y2="459.9"></line><line x1="112.6" y1="439.6" x2="104.5" y2="449.9"></line><line x1="100.1" y1="429.2" x2="91.4" y2="438.8"></line><line x1="88.4" y1="417.9" x2="79.0" y2="426.9"></line><line x1="77.5" y1="405.8" x2="67.6" y2="414.1"></line><line x1="67.5" y1="393.0" x2="57.0" y2="400.6"></line><line x1="58.4" y1="379.5" x2="47.4" y2="386.4"></line><line x1="50.3" y1="365.4" x2="38.8" y2="371.5"></line><line x1="43.1" y1="350.8" x2="31.3" y2="356.1"></line><line x1="37.1" y1="335.7" x2="24.8" y2="340.1"></line><line x1="32.0" y1="320.2" x2="19.5" y2="323.8"></line><line x1="28.1" y1="304.4" x2="15.4" y2="307.1"></line><line x1="25.3" y1="288.4" x2="12.4" y2="290.2"></line><line x1="23.6" y1="272.3" x2="10.6" y2="273.2"></line><line x1="23.0" y1="256.0" x2="10.0" y2="256.0"></line><line x1="23.6" y1="239.7" x2="10.6" y2="238.8"></line><line x1="25.3" y1="223.6" x2="12.4" y2="221.8"></line><line x1="28.1" y1="207.6" x2="15.4" y2="204.9"></line><line x1="32.0" y1="191.8" x2="19.5" y2="188.2"></line><line x1="37.1" y1="176.3" x2="24.8" y2="171.9"></line><line x1="43.1" y1="161.2" x2="31.3" y2="155.9"></line><line x1="50.3" y1="146.6" x2="38.8" y2="140.5"></line><line x1="58.4" y1="132.5" x2="47.4" y2="125.6"></line><line x1="67.5" y1="119.0" x2="57.0" y2="111.4"></line><line x1="77.5" y1="106.2" x2="67.6" y2="97.9"></line><line x1="88.4" y1="94.1" x2="79.0" y2="85.1"></line><line x1="100.1" y1="82.8" x2="91.4" y2="73.2"></line><line x1="112.6" y1="72.4" x2="104.5" y2="62.1"></line><line x1="125.7" y1="62.8" x2="118.4" y2="52.1"></line><line x1="139.5" y1="54.2" x2="133.0" y2="43.0"></line><line x1="153.9" y1="46.6" x2="148.2" y2="34.9"></line><line x1="168.7" y1="40.0" x2="163.8" y2="27.9"></line><line x1="184.0" y1="34.4" x2="180.0" y2="22.0"></line><line x1="199.6" y1="29.9" x2="196.5" y2="17.3"></line><line x1="215.5" y1="26.5" x2="213.3" y2="13.7"></line><line x1="231.6" y1="24.3" x2="230.3" y2="11.3"></line><line x1="247.9" y1="23.1" x2="247.4" y2="10.1"></line><line x1="264.1" y1="23.1" x2="264.6" y2="10.1"></line><line x1="280.4" y1="24.3" x2="281.7" y2="11.3"></line><line x1="296.5" y1="26.5" x2="298.7" y2="13.7"></line><line x1="312.4" y1="29.9" x2="315.5" y2="17.3"></line><line x1="328.0" y1="34.4" x2="332.0" y2="22.0"></line><line x1="343.3" y1="40.0" x2="348.2" y2="27.9"></line><line x1="358.1" y1="46.6" x2="363.8" y2="34.9"></line><line x1="372.5" y1="54.2" x2="379.0" y2="43.0"></line><line x1="386.3" y1="62.8" x2="393.6" y2="52.1"></line><line x1="399.4" y1="72.4" x2="407.5" y2="62.1"></line><line x1="411.9" y1="82.8" x2="420.6" y2="73.2"></line><line x1="423.6" y1="94.1" x2="433.0" y2="85.1"></line><line x1="434.5" y1="106.2" x2="444.4" y2="97.9"></line><line x1="444.5" y1="119.0" x2="455.0" y2="111.4"></line><line x1="453.6" y1="132.5" x2="464.6" y2="125.6"></line><line x1="461.7" y1="146.6" x2="473.2" y2="140.5"></line><line x1="468.9" y1="161.2" x2="480.7" y2="155.9"></line><line x1="474.9" y1="176.3" x2="487.2" y2="171.9"></line><line x1="480.0" y1="191.8" x2="492.5" y2="188.2"></line><line x1="483.9" y1="207.6" x2="496.6" y2="204.9"></line><line x1="486.7" y1="223.6" x2="499.6" y2="221.8"></line><line x1="488.4" y1="239.7" x2="501.4" y2="238.8"></line>
  </g>

  
  <circle cx="256" cy="256" r="226" fill="url(#rim2)"></circle>
  <circle cx="256" cy="256" r="210" fill="#070d1a"></circle>

  
  <circle cx="256" cy="256" r="210" fill="none" stroke="url(#neon)" stroke-width="4" opacity="0.9"></circle>
  <circle cx="256" cy="256" r="210" fill="none" stroke="#2fe6ff" stroke-width="10" opacity="0.18" filter="url(#soft)"></circle>

  
  <circle cx="256" cy="256" r="196" fill="url(#field)"></circle>

  
  <g fill="none" stroke="#2fe6ff" stroke-opacity="0.22" stroke-width="2">
    <circle cx="256" cy="256" r="170"></circle>
  </g>
  <g stroke="#6d4dff" stroke-opacity="0.16" stroke-width="1.5"><line x1="256.0" y1="86.0" x2="341.0" y2="403.2"></line><line x1="341.0" y1="108.8" x2="256.0" y2="426.0"></line><line x1="403.2" y1="171.0" x2="171.0" y2="403.2"></line><line x1="426.0" y1="256.0" x2="108.8" y2="341.0"></line><line x1="403.2" y1="341.0" x2="86.0" y2="256.0"></line><line x1="341.0" y1="403.2" x2="108.8" y2="171.0"></line><line x1="256.0" y1="426.0" x2="171.0" y2="108.8"></line><line x1="171.0" y1="403.2" x2="256.0" y2="86.0"></line><line x1="108.8" y1="341.0" x2="341.0" y2="108.8"></line><line x1="86.0" y1="256.0" x2="403.2" y2="171.0"></line><line x1="108.8" y1="171.0" x2="426.0" y2="256.0"></line><line x1="171.0" y1="108.8" x2="403.2" y2="341.0"></line></g><g fill="#2fe6ff" fill-opacity="0.7"><circle cx="256.0" cy="86.0" r="3.2"></circle><circle cx="341.0" cy="108.8" r="3.2"></circle><circle cx="403.2" cy="171.0" r="3.2"></circle><circle cx="426.0" cy="256.0" r="3.2"></circle><circle cx="403.2" cy="341.0" r="3.2"></circle><circle cx="341.0" cy="403.2" r="3.2"></circle><circle cx="256.0" cy="426.0" r="3.2"></circle><circle cx="171.0" cy="403.2" r="3.2"></circle><circle cx="108.8" cy="341.0" r="3.2"></circle><circle cx="86.0" cy="256.0" r="3.2"></circle><circle cx="108.8" cy="171.0" r="3.2"></circle><circle cx="171.0" cy="108.8" r="3.2"></circle></g>

  
  <circle cx="256" cy="232" r="120" fill="url(#coreGlow)" opacity="0.5"></circle>

  
  <g transform="translate(256 196)">
    
    <polygon points="0,-58 58,-29 0,0 -58,-29" fill="url(#cubeTop)"></polygon>
    <polygon points="-58,-29 0,0 0,62 -58,33" fill="url(#cubeLeft)"></polygon>
    <polygon points="58,-29 0,0 0,62 58,33" fill="url(#cubeRight)"></polygon>
    
    <g stroke="#bdf6ff" stroke-opacity="0.55" stroke-width="2" fill="none">
      <line x1="0" y1="0" x2="0" y2="62"></line>
      <line x1="0" y1="0" x2="-58" y2="-29"></line>
      <line x1="0" y1="0" x2="58" y2="-29"></line>
    </g>
    
    <g fill="#eafdff">
      <circle cx="0" cy="-58" r="5"></circle>
      <circle cx="58" cy="-29" r="4"></circle>
      <circle cx="-58" cy="-29" r="4"></circle>
      <circle cx="0" cy="62" r="4"></circle>
      <circle cx="58" cy="33" r="3.5"></circle>
      <circle cx="-58" cy="33" r="3.5"></circle>
    </g>
    
    <circle cx="0" cy="0" r="9" fill="#2fe6ff"></circle>
    <circle cx="0" cy="0" r="16" fill="url(#coreGlow)"></circle>
  </g>

  
  <text x="256" y="356" text-anchor="middle" font-family="&#39;Space Grotesk&#39;, system-ui, sans-serif" font-size="76" font-weight="700" letter-spacing="4" fill="#f2f6fd">TXM</text>
  
  <text x="256" y="392" text-anchor="middle" font-family="&#39;JetBrains Mono&#39;, monospace" font-size="18" letter-spacing="8" fill="#7fb8d8">TENSORIUM</text>

  
  <g stroke="#2fe6ff" stroke-opacity="0.5" stroke-width="3" stroke-linecap="round">
    <line x1="206" y1="418" x2="226" y2="418"></line>
    <line x1="236" y1="418" x2="276" y2="418"></line>
    <line x1="286" y1="418" x2="306" y2="418"></line>
  </g>

  
  <path d="M256 12 a244 244 0 0 1 172 72 a236 236 0 0 0 -344 0 a244 244 0 0 1 172 -72 z" fill="url(#sheen)" opacity="0.6"></path>
</svg>